<?xml version="1.0" encoding="UTF-8"?>
<svg width="90px" height="95px" viewBox="0 0 90 95" version="1.1" xmlns="http://www.w3.org/2000/svg" xmlns:xlink="http://www.w3.org/1999/xlink">
    <!-- Generator: Sketch 51.2 (57519) - http://www.bohemiancoding.com/sketch -->
    <title>noun_play_419260</title>
    <desc>Created with Sketch.</desc>
    <defs></defs>
    <g id="Page-1" stroke="none" stroke-width="1" fill="none" fill-rule="evenodd">
        <g id="noun_play_419260">
            <path d="M45,0 C20.1,0 0,20.1 0,45 C0,69.9 20.1,90 45,90 C69.9,90 90,69.9 90,45 C90,20.1 69.9,0 45,0 Z" id="Shape" fill="#F44336" fill-rule="nonzero"></path>
            <g id="Group" transform="translate(19.000000, 72.000000)">
                <rect id="Rectangle" stroke="#F44336" fill="#FFFFFF" x="0.5" y="0.5" width="52" height="22"></rect>
                <path d="M9.8,13.2 L11.5,13.2 L14.5,19 L17.8,19 L14.3,12.6 C14.6,12.4 15,12.2 15.3,11.9 C15.6,11.6 15.9,11.4 16.1,11 C16.3,10.6 16.5,10.3 16.6,9.8 C16.7,9.3 16.8,8.8 16.8,8.2 C16.8,7.4 16.6,6.7 16.3,6.2 C16,5.7 15.6,5.2 15,4.9 C14.4,4.6 13.9,4.4 13.2,4.2 C12.5,4.1 11.9,4 11.2,4 C10.9,4 10.6,4 10.2,4 C9.8,4 9.5,4 9.1,4.1 C8.7,4.1 8.4,4.2 8,4.2 C7.6,4.2 7.3,4.3 7,4.4 L7,19 L9.9,19 L9.9,13.2 L9.8,13.2 Z M9.8,6.7 C10,6.7 10.2,6.6 10.5,6.6 C10.8,6.6 11.1,6.6 11.4,6.6 C12.2,6.6 12.7,6.8 13.1,7.1 C13.5,7.5 13.7,8 13.7,8.6 C13.7,9.4 13.4,10 12.9,10.4 C12.4,10.8 11.7,10.9 10.9,10.9 L9.8,10.9 L9.8,6.7 Z" id="Shape" fill="#F44336" fill-rule="nonzero"></path>
                <path d="M24.4,15.7 L28.8,15.7 L29.9,19 L32.9,19 L28.2,4.3 L25.3,4.3 L20.6,19 L23.5,19 L24.4,15.7 Z M26.5,8.5 L26.7,8.5 L28.2,13.4 L25,13.4 L26.5,8.5 Z" id="Shape" fill="#F44336" fill-rule="nonzero"></path>
                <polygon id="Shape" fill="#F44336" fill-rule="nonzero" points="39.2 18.9 40.9 14.3 41.4 12.3 41.5 12.3 42 14.3 43.6 18.9 46 18.9 47.5 4.2 44.9 4.2 44.3 12.4 44.2 14.2 44.2 14.2 43.8 12.5 42.6 8.6 40.5 8.6 39.2 12.5 38.8 14.2 38.8 14.2 38.7 12.4 38 4.2 35.2 4.2 36.7 18.9"></polygon>
            </g>
            <path d="M66.5,48.6 L39.7,67.1 C39,67.6 38.1,67.9 37.2,67.9 C36.5,67.9 35.8,67.7 35.2,67.4 C33.8,66.6 32.9,65.1 32.9,63.5 L32.9,26.5 C32.9,24.9 33.8,23.4 35.2,22.6 C36.6,21.8 38.4,21.9 39.7,22.9 L66.5,41.4 C67.7,42.2 68.4,43.6 68.4,45 C68.4,46.4 67.7,47.8 66.5,48.6 Z" id="Path" fill="#FFFFFF" fill-rule="nonzero"></path>
        </g>
    </g>
</svg>